<mxfile host="app.diagrams.net" modified="2021-10-26T03:46:25.185Z" agent="5.0 (Macintosh; Intel Mac OS X 10_15_7) AppleWebKit/537.36 (KHTML, like Gecko) Chrome/94.0.4606.81 Safari/537.36" etag="3M_hTWclZBQE75ypNOdV" version="14.8.2" type="github">
  <diagram name="Page-1" id="0783ab3e-0a74-02c8-0abd-f7b4e66b4bec">
    <mxGraphModel dx="2066" dy="1097" grid="1" gridSize="10" guides="1" tooltips="1" connect="1" arrows="1" fold="1" page="1" pageScale="1" pageWidth="850" pageHeight="1100" background="none" math="0" shadow="0">
      <root>
        <mxCell id="0" />
        <mxCell id="1" parent="0" />
        <mxCell id="1c1d494c118603dd-1" value="卡牌游戏" style="swimlane;html=1;childLayout=stackLayout;startSize=20;rounded=0;shadow=0;comic=0;labelBackgroundColor=none;strokeWidth=1;fontFamily=Verdana;fontSize=12;align=center;" parent="1" vertex="1">
          <mxGeometry x="40" y="20" width="1250" height="1015" as="geometry">
            <mxRectangle x="40" y="20" width="80" height="20" as="alternateBounds" />
          </mxGeometry>
        </mxCell>
        <mxCell id="1c1d494c118603dd-2" value="第一关" style="swimlane;html=1;startSize=20;" parent="1c1d494c118603dd-1" vertex="1">
          <mxGeometry y="20" width="250" height="995" as="geometry">
            <mxRectangle y="20" width="30" height="970" as="alternateBounds" />
          </mxGeometry>
        </mxCell>
        <mxCell id="6Nip24VtoOi9n58JhDqj-135" value="卡牌" style="swimlane;" vertex="1" parent="1c1d494c118603dd-2">
          <mxGeometry x="30" y="270" width="140" height="160" as="geometry">
            <mxRectangle x="40" y="386" width="60" height="23" as="alternateBounds" />
          </mxGeometry>
        </mxCell>
        <mxCell id="6Nip24VtoOi9n58JhDqj-140" value="" style="verticalLabelPosition=bottom;verticalAlign=top;html=1;shape=mxgraph.basic.donut;dx=10;strokeColor=none;fillColor=#10739E;fontSize=10;align=center;fillOpacity=20;" vertex="1" parent="6Nip24VtoOi9n58JhDqj-135">
          <mxGeometry x="20" y="34" width="80" height="70" as="geometry" />
        </mxCell>
        <mxCell id="6Nip24VtoOi9n58JhDqj-141" value="35%" style="verticalLabelPosition=middle;verticalAlign=middle;html=1;shape=mxgraph.basic.partConcEllipse;startAngle=0;endAngle=0.411590426175908;arcWidth=0.2;strokeColor=none;fillColor=#10739E;fontSize=22;fontColor=#10739E;align=center;fontStyle=1" vertex="1" parent="6Nip24VtoOi9n58JhDqj-140">
          <mxGeometry width="80" height="70" as="geometry" />
        </mxCell>
        <mxCell id="6Nip24VtoOi9n58JhDqj-143" value="价值50珍珠" style="text;html=1;align=center;verticalAlign=middle;resizable=0;points=[];autosize=1;strokeColor=none;" vertex="1" parent="6Nip24VtoOi9n58JhDqj-135">
          <mxGeometry x="20" y="124" width="80" height="20" as="geometry" />
        </mxCell>
        <mxCell id="1c1d494c118603dd-3" value="第二关" style="swimlane;html=1;startSize=20;" parent="1c1d494c118603dd-1" vertex="1">
          <mxGeometry x="250" y="20" width="250" height="995" as="geometry">
            <mxRectangle x="250" y="20" width="30" height="995" as="alternateBounds" />
          </mxGeometry>
        </mxCell>
        <mxCell id="6Nip24VtoOi9n58JhDqj-65" value="第三关" style="swimlane;html=1;startSize=20;" vertex="1" parent="1c1d494c118603dd-1">
          <mxGeometry x="500" y="20" width="250" height="995" as="geometry">
            <mxRectangle x="280" y="20" width="30" height="995" as="alternateBounds" />
          </mxGeometry>
        </mxCell>
        <mxCell id="6Nip24VtoOi9n58JhDqj-82" value="第四关" style="swimlane;html=1;startSize=20;" vertex="1" parent="1c1d494c118603dd-1">
          <mxGeometry x="750" y="20" width="250" height="995" as="geometry">
            <mxRectangle x="280" y="20" width="30" height="995" as="alternateBounds" />
          </mxGeometry>
        </mxCell>
        <mxCell id="6Nip24VtoOi9n58JhDqj-98" value="第五关" style="swimlane;html=1;startSize=20;" vertex="1" parent="1c1d494c118603dd-1">
          <mxGeometry x="1000" y="20" width="250" height="995" as="geometry">
            <mxRectangle x="1000" y="20" width="30" height="995" as="alternateBounds" />
          </mxGeometry>
        </mxCell>
        <mxCell id="6Nip24VtoOi9n58JhDqj-114" value="用户X" style="shape=umlActor;verticalLabelPosition=bottom;verticalAlign=top;html=1;" vertex="1" parent="1">
          <mxGeometry x="140" y="140" width="30" height="60" as="geometry" />
        </mxCell>
      </root>
    </mxGraphModel>
  </diagram>
</mxfile>
